<?xml version="1.0" standalone="no"?>
<!DOCTYPE svg PUBLIC "-//W3C//DTD SVG 20010904//EN"
 "http://www.w3.org/TR/2001/REC-SVG-20010904/DTD/svg10.dtd">
<svg version="1.0" xmlns="http://www.w3.org/2000/svg"
 width="225.000000pt" height="225.000000pt" viewBox="0 0 225.000000 225.000000"
 preserveAspectRatio="xMidYMid meet">

<g transform="translate(0.000000,225.000000) scale(0.100000,-0.100000)"
fill="#000000" stroke="none">
<path d="M0 1125 l0 -1125 1125 0 1125 0 0 406 c0 321 -3 404 -13 398 -9 -6
-9 -4 1 7 7 8 12 37 11 74 -1 33 -3 52 -6 43 -2 -9 -13 -20 -23 -23 -21 -7
-32 -41 -24 -73 4 -15 1 -24 -10 -28 -9 -3 -16 -11 -16 -18 -1 -18 -58 -69
-73 -63 -17 6 -40 82 -32 106 7 23 -20 87 -42 99 -11 7 -25 6 -40 -1 -18 -8
-27 -6 -43 8 -23 21 -27 80 -6 92 7 4 18 18 24 29 15 28 72 38 89 17 7 -9 26
-16 45 -15 48 2 65 -6 72 -31 8 -30 50 -77 70 -77 15 0 16 55 16 650 l0 650
-1125 0 -1125 0 0 -1125z m443 639 c39 -14 111 -40 160 -57 l87 -31 0 -501 c0
-500 0 -500 -21 -514 -12 -7 -42 -19 -68 -26 -67 -19 -141 -45 -179 -62 -63
-28 -62 -34 -62 287 l0 291 38 16 c20 8 55 23 77 33 22 10 50 21 63 24 21 7
22 12 22 127 0 67 -4 119 -9 119 -5 0 -21 -4 -35 -10 -25 -9 -26 -13 -26 -90
0 -56 -4 -82 -12 -84 -7 -2 -29 -9 -48 -15 -77 -28 -70 -40 -70 125 l0 149
-138 49 c-75 28 -152 55 -170 60 -17 6 -32 13 -32 16 0 8 303 118 328 119 12
1 55 -11 95 -25z m658 -293 c39 -39 39 -71 0 -71 -21 0 -30 6 -34 21 -8 31
-41 21 -45 -15 -3 -23 6 -38 42 -75 57 -59 80 -109 65 -148 -18 -48 -39 -63
-85 -63 -35 0 -47 5 -68 31 -14 17 -26 41 -26 55 0 20 5 24 30 24 23 0 30 -4
30 -20 0 -10 8 -23 18 -28 50 -26 59 39 11 84 -50 47 -89 105 -89 133 1 87 92
131 151 72z m209 14 c43 -22 53 -75 43 -225 -5 -80 -10 -98 -29 -117 -31 -31
-84 -31 -121 1 -27 23 -28 28 -31 137 -4 131 6 177 45 201 35 22 56 22 93 3z
m150 -150 l0 -155 45 0 c43 0 45 -1 45 -30 l0 -30 -75 0 -75 0 0 185 0 185 30
0 30 0 0 -155z m150 83 c6 -40 16 -98 22 -128 l11 -55 20 128 20 127 34 0 c29
0 33 -3 29 -22 -3 -13 -9 -45 -15 -73 -6 -27 -17 -90 -26 -140 -25 -145 -20
-135 -65 -135 -22 0 -40 3 -40 8 0 4 -14 79 -30 167 -37 200 -37 195 -1 195
28 0 29 -2 41 -72z m240 -113 l0 -185 -30 0 -30 0 0 185 0 185 30 0 30 0 0
-185z m218 158 c-2 -22 -9 -29 -30 -31 l-27 -3 -3 -152 -3 -152 -27 -3 -28 -3
0 155 0 156 -30 0 c-27 0 -30 3 -30 30 l0 30 91 0 90 0 -3 -27z m-191 -405
c17 -16 23 -33 23 -65 0 -41 -1 -43 -30 -43 -26 0 -30 3 -30 29 0 37 -24 59
-45 41 -13 -11 -15 -35 -13 -129 l3 -116 25 0 c22 0 25 5 28 38 3 34 6 37 33
37 28 0 29 -2 29 -44 0 -60 -23 -87 -81 -93 -42 -5 -48 -3 -72 27 -26 30 -27
36 -27 153 1 82 5 130 14 146 29 53 97 62 143 19z m-778 -30 c14 -72 51 -292
51 -307 0 -6 -13 -11 -29 -11 -31 0 -41 14 -41 61 0 26 -4 29 -30 29 -24 0
-30 -4 -30 -22 0 -50 -11 -68 -41 -68 -17 0 -29 5 -29 13 0 15 47 299 55 335
4 18 12 22 44 22 l40 0 10 -52z m256 25 c-1 -26 -4 -28 -53 -31 l-52 -3 0 -45
0 -44 40 0 c38 0 40 -2 40 -29 0 -27 -3 -30 -37 -33 l-38 -3 -3 -77 -3 -78
-29 0 -30 0 0 185 0 185 83 0 84 0 -2 -27z m185 7 c11 -11 21 -26 21 -32 8
-65 6 -89 -7 -125 -14 -39 -14 -48 4 -112 10 -39 17 -73 14 -76 -3 -3 -18 -5
-33 -5 -25 0 -28 5 -44 70 -23 93 -43 94 -47 3 -3 -66 -4 -68 -30 -71 l-28 -3
0 185 0 186 65 0 c52 0 69 -4 85 -20z m140 -165 l0 -185 -30 0 -30 0 0 185 0
185 30 0 30 0 0 -185z m547 -127 c-3 -8 -6 -5 -6 6 -1 11 2 17 5 13 3 -3 4
-12 1 -19z"/>
<path d="M497 1055 c-11 -27 -10 -299 1 -303 6 -2 22 4 36 13 l25 17 -2 144
-2 144 -26 0 c-15 0 -29 -7 -32 -15z"/>
<path d="M1241 1423 c-5 -10 -9 -61 -10 -113 -2 -102 11 -139 43 -127 13 5 16
24 16 120 0 74 -4 117 -12 125 -16 16 -26 15 -37 -5z"/>
<path d="M1040 901 c0 -27 4 -41 13 -41 9 0 12 11 9 35 -6 50 -22 54 -22 6z"/>
<path d="M1450 965 c0 -46 3 -55 18 -55 27 0 42 20 42 55 0 35 -15 55 -42 55
-15 0 -18 -9 -18 -55z"/>
</g>
</svg>
